<?xml version="1.0" standalone="no"?>
<!DOCTYPE svg PUBLIC "-//W3C//DTD SVG 20010904//EN"
 "http://www.w3.org/TR/2001/REC-SVG-20010904/DTD/svg10.dtd">
<svg version="1.0" xmlns="http://www.w3.org/2000/svg"
 width="500.000000pt" height="500.000000pt" viewBox="0 0 500.000000 500.000000"
 preserveAspectRatio="xMidYMid meet">

<g transform="translate(0.000000,500.000000) scale(0.100000,-0.100000)"
fill="#000000" stroke="none">
<path d="M1148 2356 c-2 -95 -2 -181 0 -190 3 -11 14 -16 43 -16 l39 0 0 55 0
55 75 0 c120 0 165 37 165 135 0 25 -7 59 -15 75 -25 49 -60 60 -189 60 l-115
0 -3 -174z m226 88 c20 -20 20 -63 0 -92 -13 -19 -24 -22 -80 -22 l-64 0 0 65
0 65 64 0 c45 0 69 -5 80 -16z"/>
<path d="M1500 2438 c0 -7 26 -75 57 -151 62 -152 62 -169 4 -175 -28 -3 -31
-6 -31 -38 0 -32 2 -34 35 -34 74 0 96 23 146 147 102 254 105 268 54 260 -35
-5 -41 -14 -75 -109 l-34 -93 -21 50 c-12 28 -28 68 -36 90 -7 22 -17 46 -22
53 -12 16 -77 16 -77 0z"/>
<path d="M1873 2439 l-33 -10 0 -139 0 -140 40 0 39 0 3 113 3 112 33 3 c55 5
62 -8 62 -124 l0 -104 40 0 40 0 0 105 c0 114 6 125 64 125 37 0 46 -27 46
-134 l0 -96 40 0 40 0 0 104 c0 120 -11 161 -51 181 -35 19 -106 19 -139 1
-21 -12 -29 -12 -52 0 -30 16 -126 17 -175 3z"/>
<path d="M2409 2427 c-50 -33 -71 -81 -65 -144 8 -95 59 -137 161 -137 73 1
107 17 103 47 -3 20 -8 22 -66 19 -66 -4 -112 14 -112 43 0 12 18 15 100 15
l100 0 0 40 c0 84 -57 140 -141 140 -31 0 -57 -7 -80 -23z m119 -53 c12 -8 22
-24 22 -35 0 -17 -7 -19 -65 -19 -72 0 -78 8 -40 45 28 29 51 31 83 9z"/>
<path d="M2716 2311 c5 -11 3 -13 -9 -8 -26 10 -22 -36 7 -82 16 -25 39 -44
68 -56 48 -20 137 -23 181 -6 24 9 27 15 21 38 -4 16 -7 29 -8 30 -1 1 -22 -3
-46 -8 -25 -6 -60 -7 -78 -4 -34 6 -92 53 -92 74 0 6 -5 11 -11 11 -5 0 -7 -6
-4 -12 4 -7 -3 -2 -15 12 -12 14 -18 19 -14 11z"/>
<path d="M3048 2293 c-35 -5 -37 -36 -5 -84 29 -44 60 -59 122 -59 79 0 131
39 137 105 2 24 -1 30 -17 30 -11 0 -26 4 -32 8 -16 10 -17 -5 -1 -21 9 -9 9
-15 -1 -24 -10 -11 -11 -9 -6 7 5 13 -2 9 -20 -12 -37 -46 -83 -46 -118 -1
-14 17 -23 37 -20 45 3 7 1 12 -3 12 -5 -1 -21 -4 -36 -6z"/>
<path d="M3630 2280 c-8 -5 -10 -10 -5 -10 6 0 2 -5 -8 -11 -13 -8 -22 -7 -34
3 -14 11 -15 11 -8 -2 5 -8 10 -21 12 -29 1 -8 15 -28 32 -45 26 -26 39 -31
93 -34 80 -5 121 9 116 41 -3 21 -7 22 -66 19 -70 -4 -112 14 -112 49 0 11 5
17 10 14 6 -3 10 -1 10 4 0 14 -20 14 -40 1z"/>
<path d="M3820 2280 c-9 -6 -10 -10 -3 -10 6 0 15 5 18 10 8 12 4 12 -15 0z"/>
<path d="M3405 2271 c-29 -6 -30 -9 -33 -64 l-3 -57 36 0 35 0 0 65 c0 36 -1
64 -2 64 -2 -1 -16 -4 -33 -8z"/>
</g>
</svg>
